<svg width="500" height="244" viewBox="0 0 500 244" fill="none" xmlns="http://www.w3.org/2000/svg">
<path d="M332.164 127.75C332.164 127.75 348.374 52.9436 382.589 5.08772L499.502 0C499.502 0 442.526 55.7141 426.025 85.9386L494.261 80.6497C494.261 80.6497 386.569 160.896 350.364 242.603C350.364 242.603 342.502 175.353 379.434 122.662L332.164 127.75Z" fill="#FFD93F"/>
<path d="M186.905 31.9883C186.905 31.9883 166.813 41.0053 143.76 59.4424C120.707 77.8792 107.944 98.7845 107.944 98.7845C107.944 98.7845 114.932 99.3891 112.699 102.966C110.467 106.542 104.109 112.89 104.109 112.89C104.109 112.89 115.806 120.849 150.361 136.515C184.915 152.182 189.914 154.902 190.302 153.491C190.739 152.081 206.609 156.312 206.609 156.312C206.609 156.312 165.26 131.78 144.488 112.436C144.488 112.436 149.487 107.903 162.056 103.369C174.626 98.835 181.275 97.5758 181.518 95.964C181.761 94.3517 177.684 93.6466 177.684 93.6466L192.244 88.9617C192.244 88.9617 164.386 87.8535 134.782 94.8053C134.782 94.8053 148.759 71.6836 163.464 60.0975C178.169 48.5111 184.479 45.4383 184.721 43.2218C184.964 41.0054 181.518 39.6452 181.518 39.6452C181.518 39.6452 182.343 35.313 186.905 31.9883Z" fill="white"/>
<path d="M89.3062 69.1641C89.3062 69.1641 71.9316 88.7096 54.2173 117.272C36.5032 145.834 13.4019 182.356 18.9346 186.033C24.4672 189.71 33.203 188.35 33.203 188.35C33.203 188.35 32.0383 192.43 34.6105 192.783C37.1827 193.136 55.7218 176.865 77.7557 168.1C99.7892 159.284 117.358 154.347 117.843 151.98C118.329 149.562 111.097 148.151 111.534 148.151C111.922 148.151 119.784 146.086 120.367 143.416C120.997 140.746 115.271 139.587 106.632 140.646C97.9935 141.703 59.2647 153.743 59.2647 153.743C59.2647 153.743 87.6563 100.648 103.429 78.9369C119.202 57.2254 124.347 52.9941 124.298 49.7195C124.249 46.4452 111.291 46.8482 111.291 46.8482C111.291 46.8482 109.593 43.1205 107.7 43.0701C105.807 43.0198 57.7118 45.337 24.2731 52.1375C-9.16554 58.9382 0.492341 59.3408 4.13225 62.5149C7.72362 65.7385 2.14244 72.2371 2.14244 72.2371C2.14244 72.2371 18.5463 71.5315 18.3036 75.0581C18.061 78.5843 12.9651 82.5635 12.9651 82.5635C12.9651 82.5635 51.8881 71.4815 89.3062 69.1641Z" fill="white"/>
<path d="M201.32 35.1611C201.32 35.1611 206.853 65.6881 208.648 92.336C210.444 118.984 208.746 142.711 210.056 143.516C211.318 144.322 222.529 139.436 237.137 141.098C251.745 142.761 262.568 143.265 263.781 141.753C264.995 140.242 263.83 136.716 263.83 136.716C263.83 136.716 266.645 137.169 267.178 135.104C267.712 133.038 264.995 130.822 264.995 130.822C264.995 130.822 264.995 109.866 263.83 84.427C262.713 59.0384 255.191 36.7731 255.191 36.7731C255.191 36.7731 250.241 122.309 248.833 127.447C248.833 127.447 235.341 122.611 224.956 123.568C224.956 123.568 219.083 88.8603 214.23 64.983C209.377 41.1053 208.018 36.3701 206.853 36.6219C205.834 36.8234 204.912 41.2563 204.912 41.2563L201.32 35.1611Z" fill="white"/>
<path d="M374.621 77.0729C374.621 77.0729 335.99 54.3537 311.093 48.2082C286.195 42.0625 281.488 43.4225 283.381 44.8834C285.273 46.2939 289.835 49.0142 289.835 49.0142C289.835 49.0142 272.995 48.6112 274.499 50.7771C276.004 52.9435 280.808 69.3655 280.711 86.5936C280.614 103.822 280.614 115.609 281.585 116.062C282.556 116.516 291.146 115.76 291.146 115.76C291.146 115.76 289.011 119.236 291.049 119.589C293.087 119.941 302.939 117.775 313.374 118.48C323.808 119.186 328.612 120.546 328.612 120.546C328.612 120.546 329.632 144.272 323.177 161.803C323.177 161.803 274.159 141.401 272.51 143.617C270.859 145.783 273.771 150.67 273.771 150.67L254.844 158.679C254.844 158.679 280.663 163.918 301.969 172.734C323.274 181.549 335.504 189.105 337.494 188.35C339.484 187.594 342.833 178.023 348.171 149.108C353.51 120.193 350.501 105.937 348.414 104.224C343.755 100.447 295.611 102.613 295.611 102.613C295.611 102.613 297.795 82.1603 296.048 69.8185C296.096 69.7685 298.134 62.1622 374.621 77.0729Z" fill="white"/>
</svg>
