<svg width="348" height="163" viewBox="0 0 348 163" fill="none" xmlns="http://www.w3.org/2000/svg">
<path d="M231.414 85.4033C231.414 85.4033 242.707 35.3938 266.545 3.40127L347.999 0C347.999 0 308.303 37.246 296.807 57.4519L344.347 53.9158C344.347 53.9158 269.318 107.562 244.094 162.185C244.094 162.185 238.616 117.227 264.347 82.002L231.414 85.4033Z" fill="#FFD93F"/>
<path d="M130.215 21.3838C130.215 21.3838 116.217 27.4119 100.156 39.7374C84.095 52.063 75.2024 66.0386 75.2024 66.0386C75.2024 66.0386 80.0714 66.4428 78.516 68.8338C76.9606 71.2248 72.5312 75.468 72.5312 75.468C72.5312 75.468 80.68 80.7889 104.754 91.2623C128.829 101.736 132.311 103.554 132.582 102.611C132.886 101.668 143.943 104.497 143.943 104.497C143.943 104.497 115.135 88.0967 100.663 75.165C100.663 75.165 104.146 72.1341 112.903 69.1032C121.66 66.0723 126.293 65.2304 126.462 64.1528C126.631 63.0752 123.791 62.6036 123.791 62.6036L133.934 59.4717C133.934 59.4717 114.526 58.7309 93.9006 63.3782C93.9006 63.3782 103.639 47.9208 113.884 40.1752C124.129 32.4297 128.524 30.3754 128.693 28.8936C128.862 27.4119 126.462 26.5026 126.462 26.5026C126.462 26.5026 127.037 23.6064 130.215 21.3838Z" fill="white"/>
<path d="M62.2194 46.2369C62.2194 46.2369 50.1146 59.3033 37.7732 78.3979C25.4317 97.4924 9.33707 121.908 13.1917 124.366C17.0463 126.824 23.1325 125.915 23.1325 125.915C23.1325 125.915 22.321 128.643 24.113 128.879C25.9051 129.114 38.8213 118.237 54.1721 112.377C69.5229 106.484 81.7629 103.184 82.101 101.601C82.4392 99.9844 77.4011 99.0414 77.7055 99.0414C77.976 99.0414 83.4535 97.6607 83.8593 95.8759C84.2988 94.091 80.309 93.3165 74.2904 94.0237C68.2718 94.7309 41.2896 102.78 41.2896 102.78C41.2896 102.78 61.0698 67.2846 72.0588 52.7701C83.0478 38.2556 86.6319 35.4268 86.598 33.2378C86.5642 31.0488 77.5364 31.3183 77.5364 31.3183C77.5364 31.3183 76.353 28.8262 75.0343 28.7925C73.7156 28.7589 40.2077 30.308 16.911 34.8543C-6.38562 39.4006 0.343018 39.67 2.87894 41.7916C5.38104 43.9469 1.49264 48.2911 1.49264 48.2911C1.49264 48.2911 12.9212 47.8197 12.7521 50.177C12.583 52.5344 9.03275 55.1948 9.03275 55.1948C9.03275 55.1948 36.1502 47.786 62.2194 46.2369Z" fill="white"/>
<path d="M140.258 23.5059C140.258 23.5059 144.112 43.9137 145.363 61.7286C146.615 79.5434 145.431 95.4049 146.344 95.9437C147.223 96.4825 155.034 93.2159 165.211 94.3272C175.389 95.4386 182.929 95.7753 183.774 94.765C184.619 93.7548 183.808 91.3974 183.808 91.3974C183.808 91.3974 185.769 91.7005 186.141 90.3198C186.513 88.939 184.619 87.4573 184.619 87.4573C184.619 87.4573 184.619 73.4479 183.808 56.4413C183.03 39.4684 177.789 24.5835 177.789 24.5835C177.789 24.5835 174.341 81.766 173.36 85.201C173.36 85.201 163.96 81.9681 156.724 82.6079C156.724 82.6079 152.633 59.4049 149.252 43.4423C145.871 27.4797 144.924 24.3141 144.112 24.4824C143.402 24.6171 142.76 27.5807 142.76 27.5807L140.258 23.5059Z" fill="white"/>
<path d="M261.003 51.5244C261.003 51.5244 234.089 36.3363 216.743 32.2278C199.397 28.1193 196.118 29.0285 197.436 30.0051C198.755 30.9481 201.933 32.7667 201.933 32.7667C201.933 32.7667 190.2 32.4973 191.249 33.9453C192.297 35.3934 195.644 46.3719 195.577 57.8892C195.509 69.4065 195.509 77.2868 196.185 77.5899C196.861 77.893 202.846 77.3879 202.846 77.3879C202.846 77.3879 201.358 79.7115 202.779 79.9472C204.199 80.183 211.063 78.7349 218.332 79.2064C225.602 79.6778 228.949 80.5871 228.949 80.5871C228.949 80.5871 229.659 96.4487 225.162 108.168C225.162 108.168 191.012 94.5291 189.862 96.0109C188.713 97.4589 190.741 100.726 190.741 100.726L177.555 106.08C177.555 106.08 195.543 109.582 210.386 115.476C225.23 121.369 233.751 126.421 235.137 125.916C236.523 125.41 238.856 119.012 242.576 99.6816C246.295 80.3514 244.199 70.8209 242.745 69.6759C239.499 67.1502 205.957 68.5983 205.957 68.5983C205.957 68.5983 207.479 54.9257 206.261 46.675C206.295 46.6413 207.715 41.5562 261.003 51.5244Z" fill="white"/>
</svg>
